<?xml version="1.0" encoding="UTF-8" standalone="no"?> <svg xmlns="http://www.w3.org/2000/svg" viewBox="0 0 512 512"><title>picture, photo, frame, image, photography, travel</title><g id="two_tone" data-name="two tone"><rect x="104" y="104" width="304" height="304" style="fill:#5f86fe"/><polygon points="488 288 488 208 464 192 448 208 408 188 384 176 368 208 320 240 328 208 320 192 288 176 264 184 240 144 192 128 144 184 128 168 104 192 96 200 48 208 24 240 24 296 488 288" style="fill:#83a1ff"/><polygon points="420.511 289.146 488 288 488 208 464 192 448 208 419.8 193.9 420.511 289.146" style="fill:#5f86fe"/><polygon points="90.486 200.919 48 208 24 240 24 296 90.997 294.845 90.486 200.919" style="fill:#5f86fe"/><ellipse cx="328.471" cy="92.5" rx="63.529" ry="67.5" style="fill:#ef88ba"/><path d="M392,92.5c0,37.279-28.443,67.5-63.529,67.5s-63.53-30.221-63.53-67.5Z" style="fill:#e162a1"/><polygon points="192 128 144 184 160 208 176 192 200 232 216 192 200 176 216 160 192 128" style="fill:#5f86fe"/><polygon points="408 289.38 408 408 104 408 104 294.62 408 289.38" style="fill:#5f86fe"/><polygon points="384 176 368 208 384 240 384 280 416 248 416 216 392 200 384 176" style="fill:#5f86fe"/><path d="M80,80V448H432V80ZM408,408H104V104H408Z" style="fill:#b4c6ff"/><polygon points="288 176 280 200 296 216 288 256 320 240 328 208 320 192 288 176" style="fill:#5f86fe"/><polygon points="48 208 48 232 64 248 24 264 24 240 48 208" style="fill:#3a69ff"/><polygon points="464 192 488 208 488 264 448 232 464 224 464 192" style="fill:#3a69ff"/><path d="M204,64a12,12,0,1,0-4.28-23.2,19.971,19.971,0,0,0-37.789-5.331A16,16,0,1,0,152,64Z" style="fill:#83a1ff"/><path d="M59.2,136a9.6,9.6,0,1,0-3.424-18.56A15.992,15.992,0,1,0,40,136H59.2Z" style="fill:#83a1ff"/><path d="M444,64a16,16,0,1,0-9.931-28.531A19.971,19.971,0,0,0,396.28,40.8a11.962,11.962,0,0,0-15.957,8.475A8,8,0,1,0,376,64Z" style="fill:#83a1ff"/><polygon points="240 292 253 292 272 316 264 340 384 372 384 492 256 492 320 396 224 348 248 316 240 292" style="fill:#3a69ff"/><path d="M148,348h19.958A20.042,20.042,0,0,1,188,368.042V396a0,0,0,0,1,0,0H148a0,0,0,0,1,0,0V348A0,0,0,0,1,148,348Z" style="fill:#e162a1"/><path d="M176,488h25.586a1,1,0,0,0,.707-1.707L192,476V436l-4-40H148v40l-21,52h30.586a1,1,0,0,0,.707-1.707L148,476l16-40V416h9.333L176,436Z" style="fill:#5f86fe"/><path d="M132,348h30a2,2,0,0,1,2,2v46a0,0,0,0,1,0,0H124a0,0,0,0,1,0,0V356A8,8,0,0,1,132,348Z" style="fill:#e162a1"/><rect x="148" y="348" width="16" height="48" style="fill:#cf4289"/><path d="M169.875,316h.5a9.875,9.875,0,0,1,9.875,9.875v12A10.125,10.125,0,0,1,170.125,348h0A10.125,10.125,0,0,1,160,337.875v-12A9.875,9.875,0,0,1,169.875,316Z" style="fill:#ffb3d0"/><path d="M175.964,368.86l22.56,20.6a10,10,0,0,0,14.03-.537l14.909-15.864a6.179,6.179,0,0,0-.388-8.841h0a6.179,6.179,0,0,0-8.721.489L205.47,379.1l-21.414-19.189a6.031,6.031,0,0,0-8.29.227h0A6.031,6.031,0,0,0,175.964,368.86Z" style="fill:#e162a1"/><path d="M170.375,316h-.5A9.875,9.875,0,0,0,160,325.875V334h20.25v-8.125A9.875,9.875,0,0,0,170.375,316Z" style="fill:#3a69ff"/><path d="M128,332a8,8,0,0,0,0,16h28V332Z" style="fill:#cf4289"/><circle cx="160" cy="340" r="8" style="fill:#e162a1"/><path d="M400,408a4,4,0,0,0,0,8h8a4,4,0,0,0,4-4V104a4,4,0,0,0-4-4H104a4,4,0,0,0-4,4V412a4,4,0,0,0,4,4h28a4,4,0,0,0,0-8H108V108H404V408Z" style="fill:#154dfc"/><path d="M269.256,67.663a4,4,0,0,0,5.27-2.056C284.284,43.369,305.458,29,328.47,29a56.61,56.61,0,0,1,33.588,11.068,4,4,0,0,0,4.72-6.459A64.556,64.556,0,0,0,328.47,21c-26.187,0-50.237,16.248-61.27,41.393A4,4,0,0,0,269.256,67.663Z" style="fill:#154dfc"/><path d="M328.47,164c26.654,0,50.881-16.663,61.721-42.45a4,4,0,0,0-7.375-3.1C373.228,141.261,351.9,156,328.47,156c-23.39,0-44.708-14.708-54.313-37.471a4,4,0,1,0-7.371,3.11C277.645,147.372,301.856,164,328.47,164Z" style="fill:#154dfc"/><path d="M490.219,204.672l-24-16a4,4,0,0,0-5.047.5L447.21,203.133,436,197.528V80a4,4,0,0,0-4-4H80a4,4,0,0,0-4,4V199.281l-28.657,4.773A4,4,0,0,0,44.8,205.6l-24,32A4,4,0,0,0,20,240v56a4,4,0,0,0,8,0V266.708l37.485-14.994a4,4,0,0,0,1.343-6.543L52,230.343V211.389l24-4V448a4,4,0,0,0,4,4h48a4,4,0,0,0,0-8H84V84H428V444H400a4,4,0,0,0,0,8h32a4,4,0,0,0,4-4V206.472l10.211,5.106a4,4,0,0,0,4.617-.749L460,201.657v19.871l-13.789,6.894a4,4,0,0,0-.71,6.7l38.5,30.8V288a4,4,0,0,0,8,0V208A4,4,0,0,0,490.219,204.672ZM56.882,246.539,28,258.092V241.333L44,220v12a4,4,0,0,0,1.172,2.829Zm398.5-13.757,10.408-5.2A4,4,0,0,0,468,224V199.474l16,10.667v45.536Z" style="fill:#154dfc"/><path d="M382.47,283.7a4,4,0,0,0,4.358-.866l8-8a4,4,0,0,0-5.656-5.658L388,270.343V240a4.012,4.012,0,0,0-.422-1.789L372.473,208l10.786-21.573,4.946,14.838a4,4,0,1,0,7.59-2.53l-4.975-14.926a3.993,3.993,0,0,0,2.969-7.387l-8-4a4,4,0,0,0-5.367,1.789L364.9,205.261,326.39,230.933l5.491-21.963a4,4,0,0,0-.3-2.759l-8-16a4.011,4.011,0,0,0-1.789-1.789l-32-16a4,4,0,0,0-3.054-.217l-20.956,6.985L243.43,141.942a4,4,0,0,0-2.165-1.737l-48-16a4,4,0,0,0-4.3,1.192l-45.189,52.72-12.946-12.946a4,4,0,0,0-5.656,0l-8.063,8.063a4,4,0,0,0,5.657,5.657L128,173.657l12.892,12.891,15.78,23.671a4,4,0,0,0,6.156.61l12.378-12.378,21.364,35.607A4,4,0,0,0,200,236c.106,0,.213,0,.32-.013a4,4,0,0,0,3.4-2.5l16-40a4,4,0,0,0-.886-4.314L205.657,176l13.171-13.171a4,4,0,0,0,.372-5.229l-16.317-21.756,34.448,11.483,23.239,38.731a4,4,0,0,0,4.695,1.737l16.41-5.47-5.47,16.41a4,4,0,0,0,.967,4.094l14.486,14.485-7.58,37.9a4,4,0,0,0,5.711,4.363l32-16,0-.006a3.93,3.93,0,0,0,.433-.244l44.229-29.486L380,240.944V280A4,4,0,0,0,382.47,283.7Zm-185.3-110.524a4,4,0,0,0,0,5.658l14.135,14.134-12.026,30.064L179.43,189.942a4,4,0,0,0-6.258-.771l-12.55,12.551L149.009,184.3l42.783-49.913,18.927,25.236Zm119.393,64.074-23.039,11.52,6.4-31.98a4,4,0,0,0-1.094-3.614l-14.252-14.252,5.76-17.279,26.683,13.341,6.742,13.484Z" style="fill:#154dfc"/><path d="M152,68a20.012,20.012,0,0,0,13.283-5.067,23.929,23.929,0,0,0,28.066,1A16,16,0,1,0,204,36c-.455,0-.91.02-1.362.059A23.865,23.865,0,0,0,180,20a24.108,24.108,0,0,0-19.416,9.934A19.77,19.77,0,0,0,152,28a20,20,0,0,0,0,40Zm0-32a11.86,11.86,0,0,1,7.444,2.6,4,4,0,0,0,6.1-1.423A16.074,16.074,0,0,1,180,28a15.91,15.91,0,0,1,15.771,13.437,4,4,0,0,0,5.378,3.1,8,8,0,1,1-3.908,11.725,4,4,0,0,0-2.9-1.834,4.068,4.068,0,0,0-.48-.029,4,4,0,0,0-2.774,1.119,15.944,15.944,0,0,1-23.05-.924,4,4,0,0,0-6.255.337A11.995,11.995,0,1,1,152,36Z" style="fill:#154dfc"/><path d="M40,140H59.2a13.6,13.6,0,0,0,0-27.2c-.18,0-.362,0-.542.011A20,20,0,1,0,40,140Zm0-32a11.931,11.931,0,0,1,11.827,10.076,4,4,0,0,0,5.379,3.1A5.6,5.6,0,1,1,59.2,132H40a12,12,0,0,1,0-24Z" style="fill:#154dfc"/><path d="M364,56a11.994,11.994,0,0,0,19.371,9.463,15.969,15.969,0,0,0,19.28-1.527,23.929,23.929,0,0,0,28.066-1A19.994,19.994,0,1,0,444,28a19.77,19.77,0,0,0-8.584,1.934A24.108,24.108,0,0,0,416,20a23.865,23.865,0,0,0-22.638,16.059C392.91,36.02,392.455,36,392,36a15.914,15.914,0,0,0-13.96,8.175A12,12,0,0,0,364,56Zm12-4a3.975,3.975,0,0,1,2.156.638,4,4,0,0,0,6.062-2.456,7.963,7.963,0,0,1,10.633-5.646,4,4,0,0,0,5.378-3.1A15.91,15.91,0,0,1,416,28a16.074,16.074,0,0,1,14.453,9.18,4,4,0,0,0,6.1,1.423A11.86,11.86,0,0,1,444,36a12,12,0,1,1-9.781,18.93,4,4,0,0,0-3.046-1.679c-.072,0-.145,0-.216,0a3.994,3.994,0,0,0-2.993,1.347,15.944,15.944,0,0,1-23.05.924,4,4,0,0,0-6.155.744,7.973,7.973,0,0,1-12.769,1,4,4,0,0,0-6.5.682A4,4,0,1,1,376,52Z" style="fill:#154dfc"/><path d="M352,268a4,4,0,0,0,2.223-7.328l-12-8a4,4,0,0,0-4.438,0l-12,8a4,4,0,1,0,4.438,6.656l5.838-3.892A3.891,3.891,0,0,0,336,264v5.859l-10.219,6.813a4,4,0,1,0,4.438,6.656L336,279.474v6.385l-10.219,6.813a4,4,0,1,0,4.438,6.656L336,295.474V312a4,4,0,0,0,8,0V295.474l5.781,3.854a4,4,0,0,0,4.438-6.656L344,285.859v-6.385l5.781,3.854a4,4,0,0,0,4.438-6.656L344,269.859V264a3.891,3.891,0,0,0-.057-.564l5.838,3.892A3.976,3.976,0,0,0,352,268Z" style="fill:#154dfc"/><path d="M312,284a4,4,0,0,0,2.223-7.328l-12-8a4,4,0,0,0-4.438,0l-12,8a4,4,0,1,0,4.438,6.656l5.838-3.892A3.891,3.891,0,0,0,296,280v5.859l-10.219,6.813a4,4,0,1,0,4.438,6.656L296,295.474v6.385l-10.219,6.813a4,4,0,1,0,4.438,6.656L296,311.474V328a4,4,0,0,0,8,0V311.474l5.781,3.854a4,4,0,0,0,4.438-6.656L304,301.859v-6.385l5.781,3.854a4,4,0,0,0,4.438-6.656L304,285.859V280a3.891,3.891,0,0,0-.057-.564l5.838,3.892A3.976,3.976,0,0,0,312,284Z" style="fill:#154dfc"/><path d="M394.219,332.672,384,325.859v-6.385l5.781,3.854a4,4,0,0,0,4.438-6.656L384,309.859V304a3.891,3.891,0,0,0-.057-.564l5.838,3.892a4,4,0,0,0,4.438-6.656l-12-8a4,4,0,0,0-4.438,0l-12,8a4,4,0,1,0,4.438,6.656l5.838-3.892A3.891,3.891,0,0,0,376,304v5.859l-10.219,6.813a4,4,0,1,0,4.438,6.656L376,319.474v6.385l-10.219,6.813a4,4,0,1,0,4.438,6.656L376,335.474V352a4,4,0,0,0,8,0V335.474l5.781,3.854a4,4,0,0,0,4.438-6.656Z" style="fill:#154dfc"/><path d="M184,244a4,4,0,0,0,2.223-7.328l-12-8a4,4,0,0,0-4.438,0l-12,8a4,4,0,1,0,4.438,6.656l5.838-3.892A3.891,3.891,0,0,0,168,240v5.859l-10.219,6.813a4,4,0,0,0,4.438,6.656L168,255.474v6.385l-10.219,6.813a4,4,0,0,0,4.438,6.656L168,271.474V288a4,4,0,0,0,8,0V271.474l5.781,3.854a4,4,0,0,0,4.438-6.656L176,261.859v-6.385l5.781,3.854a4,4,0,0,0,4.438-6.656L176,245.859V240a3.891,3.891,0,0,0-.057-.564l5.838,3.892A3.976,3.976,0,0,0,184,244Z" style="fill:#154dfc"/><path d="M224,260a4,4,0,0,0,2.223-7.328l-12-8a4,4,0,0,0-4.438,0l-12,8a4,4,0,0,0,4.438,6.656l5.838-3.892A3.891,3.891,0,0,0,208,256v5.859l-10.219,6.813a4,4,0,0,0,4.438,6.656L208,271.474v6.385l-10.219,6.813a4,4,0,0,0,4.438,6.656L208,287.474V304a4,4,0,0,0,8,0V287.474l5.781,3.854a4,4,0,0,0,4.438-6.656L216,277.859v-6.385l5.781,3.854a4,4,0,0,0,4.438-6.656L216,261.859V256a3.891,3.891,0,0,0-.057-.564l5.838,3.892A3.976,3.976,0,0,0,224,260Z" style="fill:#154dfc"/><path d="M144,260a4,4,0,0,0,2.223-7.328l-12-8a4,4,0,0,0-4.438,0l-12,8a4,4,0,1,0,4.438,6.656l5.838-3.892A3.891,3.891,0,0,0,128,256v5.859l-10.219,6.813a4,4,0,1,0,4.438,6.656L128,271.474v6.385l-10.219,6.813a4,4,0,1,0,4.438,6.656L128,287.474V304a4,4,0,0,0,8,0V287.474l5.781,3.854a4,4,0,0,0,4.438-6.656L136,277.859v-6.385l5.781,3.854a4,4,0,0,0,4.438-6.656L136,261.859V256a3.891,3.891,0,0,0-.057-.564l5.838,3.892A3.976,3.976,0,0,0,144,260Z" style="fill:#154dfc"/><path d="M481.172,330.829a4,4,0,0,0,5.656-5.658l-16-16a4,4,0,0,0-5.656,0l-16,16a4,4,0,0,0,5.656,5.658L464,321.657v8.686l-14.828,14.828a4,4,0,0,0,5.656,5.658L464,341.657v8.686l-14.828,14.828a4,4,0,0,0,5.656,5.658L464,361.657v8.686l-14.828,14.828a4,4,0,0,0,5.656,5.658L464,381.657V424a4,4,0,0,0,8,0V381.657l9.172,9.172a4,4,0,0,0,5.656-5.658L472,370.343v-8.686l9.172,9.172a4,4,0,0,0,5.656-5.658L472,350.343v-8.686l9.172,9.172a4,4,0,0,0,5.656-5.658L472,330.343v-8.686Z" style="fill:#154dfc"/><path d="M57.172,322.829a4,4,0,1,0,5.656-5.658l-16-16a4,4,0,0,0-5.656,0l-16,16a4,4,0,0,0,5.656,5.658L40,313.657v8.686L25.172,337.171a4,4,0,0,0,5.656,5.658L40,333.657v8.686L25.172,357.171a4,4,0,0,0,5.656,5.658L40,353.657v8.686L25.172,377.171a4,4,0,0,0,5.656,5.658L40,373.657V416a4,4,0,0,0,8,0V373.657l9.172,9.172a4,4,0,1,0,5.656-5.658L48,362.343v-8.686l9.172,9.172a4,4,0,1,0,5.656-5.658L48,342.343v-8.686l9.172,9.172a4,4,0,1,0,5.656-5.658L48,322.343v-8.686Z" style="fill:#154dfc"/><path d="M240.722,452H268a4,4,0,0,0,0-8H239.388l-4.666-28H292a4,4,0,0,0,0-8H233.388l-5-29.985,2.183-2.323a10.179,10.179,0,1,0-15-13.758l-10.216,11.417L190.572,360.11a24.169,24.169,0,0,0-10.186-12.554,14.058,14.058,0,0,0,3.864-9.676V325.87A13.886,13.886,0,0,0,170.38,312h-.51a13.889,13.889,0,0,0-1.87.141V311a4,4,0,0,0-8,0v5c0,.043.011.084.013.127A13.822,13.822,0,0,0,156,325.87V328H128a11.983,11.983,0,0,0-8,20.919V396a4,4,0,0,0,4,4h60.38L188,436.2V472a4,4,0,0,0,0,8h2.343l4,4H180V436a4.063,4.063,0,0,0-.035-.529l-2.667-20A4,4,0,0,0,173.333,412H164a4,4,0,0,0-4,4v19.229L145.292,472H144a4,4,0,0,0,0,8h2.343l4,4H132.93l18.779-46.5A4.006,4.006,0,0,0,152,436V412a4,4,0,0,0-8,0v23.223L123.291,486.5A4,4,0,0,0,127,492h33a4,4,0,0,0,2.828-6.829l-10.135-10.134,15.021-37.552A4,4,0,0,0,168,436V420h1.831L172,436.266V488a4,4,0,0,0,4,4h28a4,4,0,0,0,2.828-6.829L196,474.343V436c0-.133-.007-.266-.02-.4L192,395.8v-7.163l4.023,3.674a14.057,14.057,0,0,0,19.642-.752l5.837-6.211L225.278,408H204a4,4,0,0,0,0,8h22.612l4.666,28H208a4,4,0,0,0,0,8h24.612l3.443,20.658A4,4,0,0,0,240,476a4.124,4.124,0,0,0,.662-.054,4,4,0,0,0,3.288-4.6ZM156,340a4,4,0,1,1,4,4A4,4,0,0,1,156,340Zm15.3-4h4.95v1.88a6.13,6.13,0,0,1-4.905,6A11.79,11.79,0,0,0,171.3,336Zm4.7-10.125V328H164.25v-2.125a5.875,5.875,0,0,1,11.75,0ZM128,336h20.7a11.779,11.779,0,0,0,0,8H128a4,4,0,0,1,0-8Zm24,56V364a4,4,0,0,0-8,0v28H128V352h32v40Zm57.835-5.922a6.023,6.023,0,0,1-8.417.321l-22.56-20.6a4,4,0,0,0-5.394,5.908L184,381.33V392H168V352.013a16.216,16.216,0,0,1,15.284,11.533,4,4,0,0,0,1.157,1.813L203,381.979a4,4,0,0,0,5.65-.312l12.884-14.4a2.179,2.179,0,1,1,3.212,2.945Z" style="fill:#154dfc"/><path d="M385.03,368.135l-115.89-30.9,6.655-19.966a4,4,0,0,0-.659-3.748l-19-24A4,4,0,0,0,253,288H240a4,4,0,0,0-3.795,5.265l7.338,22.012L220.8,345.6a4,4,0,0,0,1.411,5.978l91.947,45.973-61.486,92.23a4,4,0,1,0,6.656,4.438l64-96a4,4,0,0,0-1.539-5.8l-91.713-45.856L251.2,318.4a4,4,0,0,0,.595-3.665L245.55,296h5.514l16.457,20.787-7.316,21.948a4,4,0,0,0,2.765,5.13L380,375.073V492a4,4,0,0,0,8,0V372A4,4,0,0,0,385.03,368.135Z" style="fill:#154dfc"/></g></svg>